<svg xmlns="http://www.w3.org/2000/svg" width="348.538" height="681.621" viewBox="0 0 348.538 681.621">
  <g id="Group_1" data-name="Group 1" transform="translate(-453.911 -267)">
    <path id="Path_1" data-name="Path 1" d="M692.394,575.523l31.4-35.935.328.286,5.776-6.609-.328-.286,9.641-11.033a4.167,4.167,0,0,0-.4-5.88l-23.351-20.405a4.167,4.167,0,0,0-5.88.4l-6.722,7.693-.532-.444-3.934,4.712.426.356-.891,1.02-.453-.378-3.934,4.712.347.29-31.124,35.617a4.16,4.16,0,0,0,.4,5.88l23.351,20.405A4.172,4.172,0,0,0,692.394,575.523Z" transform="translate(44.991 158.446)" fill="#3f3d56"/>
    <path id="Path_2" data-name="Path 2" d="M663.571,553.315a2,2,0,0,1,.243-2.284l47.312-54.142a2,2,0,0,1,2.818-.19l4.968,4.342-.194.1a2.3,2.3,0,0,0-.482,3.79l11.026,9.635a2.331,2.331,0,0,0,2.077.346,2.283,2.283,0,0,0,1.482-1.446l.071-.206,5.132,4.485a2,2,0,0,1,.19,2.818l-45.14,51.656a5.3,5.3,0,0,1-7.476.5L664,553.848a2,2,0,0,1-.433-.534Z" transform="translate(45.131 158.585)" fill="#fff"/>
    <ellipse id="Ellipse_1" data-name="Ellipse 1" cx="7.892" cy="7.892" rx="7.892" ry="7.892" transform="translate(748.494 674.768)" fill="#5444e3"/>
    <path id="Path_3" data-name="Path 3" d="M703.68,551.3l-21.87-19.111a.69.69,0,0,1,.909-1.04l21.87,19.111a.69.69,0,1,1-.909,1.04Z" transform="translate(46.74 161.65)" fill="#fff"/>
    <path id="Path_4" data-name="Path 4" d="M693.863,546.522l-7.194-6.286a.69.69,0,0,1,.909-1.04l7.194,6.286a.69.69,0,0,1-.909,1.04Z" transform="translate(47.168 162.36)" fill="#fff"/>
    <path id="Path_5" data-name="Path 5" d="M690.04,550.9l-7.194-6.286a.69.69,0,0,1,.909-1.04l7.194,6.286a.69.69,0,1,1-.909,1.04Z" transform="translate(46.831 162.745)" fill="#fff"/>
    <path id="Path_6" data-name="Path 6" d="M688.082,553.137l-7.194-6.286a.69.69,0,1,1,.909-1.04l7.194,6.286a.69.69,0,0,1-.909,1.04Z" transform="translate(46.659 162.943)" fill="#fff"/>
    <path id="Path_7" data-name="Path 7" d="M696.34,552.49l-15.263-13.337a.69.69,0,0,1,.909-1.04l15.263,13.337a.69.69,0,0,1-.909,1.04Z" transform="translate(46.675 162.264)" fill="#fff"/>
    <path id="Path_8" data-name="Path 8" d="M681.347,555.4l-2.612-2.283a1.174,1.174,0,1,1,1.545-1.768l2.612,2.282a1.174,1.174,0,0,1-1.545,1.768Z" transform="translate(46.454 163.42)" fill="#fff"/>
    <path id="Path_9" data-name="Path 9" d="M650.783,515.8a11.745,11.745,0,0,1,1.542-17.944l-19.172-92.788,20.685,6.525,15.425,89.765a11.809,11.809,0,0,1-18.48,14.441Z" transform="translate(42.882 158.446)" fill="#9e616a"/>
    <path id="Path_10" data-name="Path 10" d="M606.467,267.775,619.28,258.1s11.3-.8,13.3,19.583S647.121,376.3,647.121,376.3l19.607,90.81-27.141,5.957-21-98-21.022-67.61Z" transform="translate(42.882 158.446)" fill="#2f2e41"/>
    <path id="Path_11" data-name="Path 11" d="M609.8,435,567.986,381.22a4.583,4.583,0,0,1,.8-6.424l61.462-47.79a4.583,4.583,0,0,1,6.424.8l41.818,53.782a4.583,4.583,0,0,1-.8,6.424l-61.462,47.79a4.583,4.583,0,0,1-6.424-.8Z" transform="translate(42.882 158.446)" fill="#3f3d56"/>
    <path id="Path_12" data-name="Path 12" d="M610.862,430.147l-37.91-48.756a4.069,4.069,0,0,1,.714-5.7l56.249-43.736a4.069,4.069,0,0,1,5.7.714l37.91,48.756a4.069,4.069,0,0,1-.714,5.7L616.566,430.86a4.069,4.069,0,0,1-5.7-.714Z" transform="translate(42.882 158.446)" fill="#fff"/>
    <path id="Path_13" data-name="Path 13" d="M664.015,385.706l-19.125-24.6a1.016,1.016,0,1,1,1.6-1.247l19.125,24.6a1.016,1.016,0,0,1-1.6,1.247Z" transform="translate(42.882 158.446)" fill="#e4e4e4"/>
    <path id="Path_14" data-name="Path 14" d="M660.845,388.17l-19.125-24.6a1.016,1.016,0,0,1,1.6-1.247l19.125,24.6a1.016,1.016,0,1,1-1.6,1.247Z" transform="translate(42.882 158.446)" fill="#e4e4e4"/>
    <path id="Path_15" data-name="Path 15" d="M646.841,376.7l-8.29-10.662a1.016,1.016,0,0,1,1.6-1.247l8.29,10.662a1.016,1.016,0,1,1-1.6,1.248Z" transform="translate(42.882 158.446)" fill="#e4e4e4"/>
    <path id="Path_16" data-name="Path 16" d="M642.567,397.623l-30.192-38.829a1.016,1.016,0,1,1,1.6-1.247l30.192,38.829a1.016,1.016,0,1,1-1.6,1.247Z" transform="translate(42.882 158.446)" fill="#e4e4e4"/>
    <path id="Path_17" data-name="Path 17" d="M639.4,400.088l-30.192-38.829a1.016,1.016,0,0,1,1.6-1.247L641,398.84a1.016,1.016,0,0,1-1.6,1.247Z" transform="translate(42.882 158.446)" fill="#e4e4e4"/>
    <path id="Path_18" data-name="Path 18" d="M632.2,405.682,602.01,366.853a1.016,1.016,0,1,1,1.6-1.247l30.192,38.829a1.016,1.016,0,1,1-1.6,1.247Z" transform="translate(42.882 158.446)" fill="#e4e4e4"/>
    <path id="Path_19" data-name="Path 19" d="M629.033,408.147l-30.192-38.829a1.016,1.016,0,1,1,1.6-1.247L630.637,406.9a1.016,1.016,0,1,1-1.6,1.248Z" transform="translate(42.882 158.446)" fill="#e4e4e4"/>
    <path id="Path_20" data-name="Path 20" d="M621.837,413.742l-30.192-38.829a1.016,1.016,0,0,1,1.6-1.247l30.192,38.829a1.016,1.016,0,0,1-1.6,1.247Z" transform="translate(42.882 158.446)" fill="#e4e4e4"/>
    <path id="Path_21" data-name="Path 21" d="M618.668,416.206l-30.192-38.829a1.016,1.016,0,1,1,1.6-1.247l30.192,38.829a1.016,1.016,0,1,1-1.6,1.247Z" transform="translate(42.882 158.446)" fill="#e4e4e4"/>
    <circle id="Ellipse_2" data-name="Ellipse 2" cx="0.417" cy="0.417" r="0.417" transform="translate(713.019 619.091)" fill="#fff"/>
    <path id="Path_22" data-name="Path 22" d="M707.846,576.637h-3.264v-29.38a39.718,39.718,0,0,0-79.435,0v29.38h-3.264v-29.38a42.982,42.982,0,0,1,85.964,0Z" transform="translate(41.478 159.296)" fill="#2f2e41"/>
    <path id="Path_23" data-name="Path 23" d="M761.1,547.619a21.122,21.122,0,0,0-20.664-16.344H592.423a21.308,21.308,0,0,0-20.99,18.031,244.342,244.342,0,0,0-2.187,46.714q.376,9.01,1.339,18.5.62,6.2,1.48,12.623a21.3,21.3,0,0,0,21.045,18.39H740.151a21.1,21.1,0,0,0,20.708-16.573q1.632-7.247,2.7-14.44a185.745,185.745,0,0,0,1.85-18.5,173.726,173.726,0,0,0-4.309-48.4Z" transform="translate(36.812 161.676)" fill="#5444e3"/>
    <path id="Path_24" data-name="Path 24" d="M707.846,568.137h-3.264v-29.38a39.718,39.718,0,0,0-79.435,0v29.38h-3.264v-29.38a42.982,42.982,0,1,1,85.964,0Z" transform="translate(41.478 158.547)" fill="#2f2e41"/>
    <path id="Path_25" data-name="Path 25" d="M665.15,539.846l-5.441-9.424a5.314,5.314,0,0,0-9.827,1.175v10.882a3.809,3.809,0,1,0,7.617,0v-.651l1.054,1.826a3.809,3.809,0,0,0,6.6-3.808Z" transform="translate(43.946 161.354)" fill="#2f2e41"/>
    <ellipse id="Ellipse_3" data-name="Ellipse 3" cx="6.529" cy="6.529" rx="6.529" ry="6.529" transform="translate(659.551 720.155)" fill="#2f2e41"/>
    <ellipse id="Ellipse_4" data-name="Ellipse 4" cx="6.529" cy="6.529" rx="6.529" ry="6.529" transform="translate(740.619 720.699)" fill="#2f2e41"/>
    <path id="Path_26" data-name="Path 26" d="M765.383,590.775a185.763,185.763,0,0,1-1.85,18.5H570.56q-.963-9.5-1.338-18.5Z" transform="translate(36.836 166.921)" fill="#3f3d56"/>
    <circle id="Ellipse_6" data-name="Ellipse 6" cx="15" cy="15" r="15" transform="translate(566.764 295.221)" fill="#2f2e41"/>
    <circle id="Ellipse_7" data-name="Ellipse 7" cx="38" cy="38" r="38" transform="translate(567.764 306.221)" fill="#2f2e41"/>
    <path id="Path_51" data-name="Path 51" d="M376.2,650.637h17.881l8.51-68.968H376.2Z" transform="translate(210 267)" fill="#9e616a"/>
    <path id="Path_52" data-name="Path 52" d="M537.484,746.944l28.567-1.705v12.239l27.159,18.757a7.645,7.645,0,0,1-4.344,13.936h-34.01l-5.862-12.106-2.289,12.107H533.882Z" transform="translate(42.882 158.446)" fill="#2f2e41"/>
    <path id="Path_53" data-name="Path 53" d="M269.971,628.072l14.349,10.67L332.3,588.475l-21.177-15.747Z" transform="translate(210 267)" fill="#9e616a"/>
    <path id="Path_54" data-name="Path 54" d="M439.714,723.316l23.941,15.678-7.3,9.821,10.6,31.258a7.645,7.645,0,0,1-11.8,8.591L427.86,768.37l2.52-13.213-9.061,8.349-10.29-7.652Z" transform="translate(42.882 158.446)" fill="#2f2e41"/>
    <rect id="Rectangle_1" data-name="Rectangle 1" width="68" height="64" transform="translate(576.764 536.221)" fill="#9e616a"/>
    <path id="Path_55" data-name="Path 55" d="M522.5,403.35s-33.926,29.311-18.273,112.868l19.11,81.872L461.016,701.483l19.872,24.175,81.021-111.911,29.36-68.869,15.53-120.7Z" transform="translate(42.882 158.446)" fill="#2f2e41"/>
    <path id="Path_56" data-name="Path 56" d="M407.969,455.95l2.04,31.6-6.245,134.669L374.379,617.1l-5.615-95.883Z" transform="translate(210 267)" fill="#2f2e41"/>
    <path id="Path_57" data-name="Path 57" d="M417.086,125.739l-32.81,1.28L371.2,148.725l-29.833,5.824,17.81,90.1-17.59,65.39,63.2,27.66,14.065-42.15,18.692,51.1,30.011-32.633-24.7-62.993,12.778-49.694-2.872-52.108-24-3Z" transform="translate(210 267)" fill="#2f2e41"/>
    <circle id="Ellipse_8" data-name="Ellipse 8" cx="30.879" cy="30.879" r="30.879" transform="translate(578.029 320.453)" fill="#9e616a"/>
    <path id="Path_58" data-name="Path 58" d="M587,161.409a35.371,35.371,0,0,0-53.777,30.87c15.735,3.951,32.265,6.974,49.045.945l3.963-9.7,2.336,9.706c5.11,2.089,10.233,3.856,15.357-.02A36.116,36.116,0,0,0,587,161.409Z" transform="translate(42.882 158.446)" fill="#2f2e41"/>
    <path id="Path_59" data-name="Path 59" d="M524.916,111.056c-10.372-4.756-23.387-2.524-32.024,4.933s-12.743,19.595-11.075,30.883c1.7,11.516,8.7,21.432,15.155,31.121s12.758,20.3,12.751,31.945a31.667,31.667,0,0,1-31.6,31.647c9.84,4.236,20.111,8.556,30.813,8.053s21.919-7.382,23.664-17.952c1.258-7.616-2.479-15.043-5.6-22.105a156.367,156.367,0,0,1-10.928-35.973c-1.041-5.912-1.719-12.127.209-17.812A20.916,20.916,0,0,1,537.06,142.07l3.536-3.181C542.169,127.587,535.289,115.812,524.916,111.056Z" transform="translate(42.882 158.446)" fill="#2f2e41"/>
    <path id="Path_61" data-name="Path 61" d="M519.217,460.775H482.962a6.213,6.213,0,0,0-4.3,1.617c-3.671-.549-7.359.893-9.127,3.569a6.043,6.043,0,0,0,1.375,8.166,10.074,10.074,0,0,0,9.97,1.438l4.235,28.954a5.656,5.656,0,0,0,5.415,3.255H514.1a5.655,5.655,0,0,0,5.414-3.255l5.114-37.777a3.93,3.93,0,0,0-.858-4.1,6.171,6.171,0,0,0-4.557-1.872Zm-42.082,13.5c-3.392,0-6.142-2.239-6.142-5s2.75-5,6.142-5c.112,0,.216.022.328.027a3.751,3.751,0,0,0,.086,2.441l2.594,6.865a7.153,7.153,0,0,1-3.008.668Z" transform="translate(42.882 158.446)" fill="#5444e3"/>
    <path id="Path_62" data-name="Path 62" d="M485.261,507.8a11.745,11.745,0,0,0-1.633-17.936l18.7-92.884-20.651,6.63-14.969,89.842A11.809,11.809,0,0,0,485.261,507.8Z" transform="translate(42.882 158.446)" fill="#9e616a"/>
    <path id="Path_63" data-name="Path 63" d="M521.3,272.775,508.484,263.1s-11.3-.8-13.3,19.583S480.643,381.3,480.643,381.3l-19.607,90.81,27.141,5.957,21-98L530.2,312.46Z" transform="translate(42.882 158.446)" fill="#2f2e41"/>
    <circle id="Ellipse_9" data-name="Ellipse 9" cx="7.253" cy="7.253" r="7.253" transform="translate(667.511 501.268)" fill="#5444e3"/>
    <circle id="Ellipse_10" data-name="Ellipse 10" cx="7.253" cy="7.253" r="7.253" transform="translate(667.511 501.268)" fill="#5444e3"/>
  </g>
</svg>
